<svg id="visual" viewBox="0 0 900 600" width="900" height="600" xmlns="http://www.w3.org/2000/svg" xmlns:xlink="http://www.w3.org/1999/xlink" version="1.1"><path d="M0 538L16.7 539C33.3 540 66.7 542 100 540.3C133.3 538.7 166.7 533.3 200 538.2C233.3 543 266.7 558 300 557.2C333.3 556.3 366.7 539.7 400 535.5C433.3 531.3 466.7 539.7 500 548.5C533.3 557.3 566.7 566.7 600 569.8C633.3 573 666.7 570 700 567.7C733.3 565.3 766.7 563.7 800 555.7C833.3 547.7 866.7 533.3 883.3 526.2L900 519L900 601L883.3 601C866.7 601 833.3 601 800 601C766.7 601 733.3 601 700 601C666.7 601 633.3 601 600 601C566.7 601 533.3 601 500 601C466.7 601 433.3 601 400 601C366.7 601 333.3 601 300 601C266.7 601 233.3 601 200 601C166.7 601 133.3 601 100 601C66.7 601 33.3 601 16.7 601L0 601Z" fill="#4FACF7" stroke-linecap="round" stroke-linejoin="miter"></path></svg>