<svg id="visual" viewBox="0 0 900 600" width="900" height="600" xmlns="http://www.w3.org/2000/svg" xmlns:xlink="http://www.w3.org/1999/xlink" version="1.1"><path d="M0 98L16.7 88.2C33.3 78.3 66.7 58.7 100 65C133.3 71.3 166.7 103.7 200 110.5C233.3 117.3 266.7 98.7 300 95.2C333.3 91.7 366.7 103.3 400 110C433.3 116.7 466.7 118.3 500 106.3C533.3 94.3 566.7 68.7 600 60.2C633.3 51.7 666.7 60.3 700 66C733.3 71.7 766.7 74.3 800 79.7C833.3 85 866.7 93 883.3 97L900 101L900 0L883.3 0C866.7 0 833.3 0 800 0C766.7 0 733.3 0 700 0C666.7 0 633.3 0 600 0C566.7 0 533.3 0 500 0C466.7 0 433.3 0 400 0C366.7 0 333.3 0 300 0C266.7 0 233.3 0 200 0C166.7 0 133.3 0 100 0C66.7 0 33.3 0 16.7 0L0 0Z" fill="#4FACF7" stroke-linecap="round" stroke-linejoin="miter"></path></svg>